<?xml version="1.0" encoding="utf-8"?>
<!-- Generator: Adobe Illustrator 22.0.0, SVG Export Plug-In . SVG Version: 6.00 Build 0)  -->
<svg version="1.1" id="Icon_Set" xmlns="http://www.w3.org/2000/svg" xmlns:xlink="http://www.w3.org/1999/xlink" x="0px" y="0px"
	 viewBox="0 0 64 64" style="enable-background:new 0 0 64 64;" xml:space="preserve">
<style type="text/css">
	.st0{fill:#40C4FF;}
	.st1{fill:#263238;}
	.st2{fill:#FFD740;}
	.st3{fill:#FF5252;}
	.st4{fill:#4DB6AC;}
	.st5{fill:#FFFFFF;}
	.st6{fill:#4FC3F7;}
	.st7{fill:#37474F;}
</style>
<g>
	<g>
		<path class="st3" d="M44,16c0-6.627-5.373-12-12-12S20,9.373,20,16c0,5.71,3.992,10.479,9.335,11.693L32,36.5l2.665-8.807
			C40.008,26.48,44,21.71,44,16z"/>
		<path class="st1" d="M32,37c-0.22,0-0.415-0.145-0.479-0.355l-2.582-8.532C23.366,26.713,19.5,21.773,19.5,16
			c0-6.893,5.607-12.5,12.5-12.5S44.5,9.107,44.5,16c0,5.773-3.867,10.713-9.44,12.113l-2.582,8.531C32.414,36.855,32.22,37,32,37z
			 M32,4.5c-6.341,0-11.5,5.159-11.5,11.5c0,5.401,3.678,10.009,8.945,11.205c0.175,0.039,0.315,0.17,0.368,0.343L32,34.773
			l2.187-7.225c0.052-0.172,0.192-0.303,0.368-0.343C39.821,26.009,43.5,21.401,43.5,16C43.5,9.659,38.341,4.5,32,4.5z"/>
	</g>
	<g>
		<path class="st1" d="M2,57.5H1c-0.276,0-0.5-0.224-0.5-0.5s0.224-0.5,0.5-0.5h1c0.276,0,0.5,0.224,0.5,0.5S2.276,57.5,2,57.5z"/>
	</g>
	<g>
		<path class="st1" d="M17,57.5H4c-0.276,0-0.5-0.224-0.5-0.5s0.224-0.5,0.5-0.5h13c0.276,0,0.5,0.224,0.5,0.5S17.276,57.5,17,57.5z
			"/>
	</g>
	<g>
		<path class="st1" d="M22,60.5H9c-0.276,0-0.5-0.224-0.5-0.5s0.224-0.5,0.5-0.5h13c0.276,0,0.5,0.224,0.5,0.5S22.276,60.5,22,60.5z
			"/>
	</g>
	<g>
		<path class="st1" d="M23.25,47.5H8.5c-2.84,0-5.193-2.129-5.473-4.951C3,42.273,3.2,42.028,3.475,42.002
			c0.275-0.029,0.52,0.173,0.547,0.447C4.251,44.759,6.176,46.5,8.5,46.5h14.75c0.276,0,0.5,0.224,0.5,0.5S23.526,47.5,23.25,47.5z"
			/>
	</g>
	<g>
		<path class="st1" d="M28.7,34.5H15.5c-0.172,0-0.333-0.089-0.424-0.235l-4.266-6.825C10.442,26.852,9.808,26.5,9.114,26.5H6
			c-1.103,0-2,0.897-2,2v5C4,33.776,3.776,34,3.5,34S3,33.776,3,33.5v-5c0-1.654,1.346-3,3-3h3.114c1.041,0,1.992,0.527,2.544,1.409
			l4.119,6.591H28.7c0.276,0,0.5,0.224,0.5,0.5S28.976,34.5,28.7,34.5z"/>
	</g>
	<g>
		<path class="st1" d="M59,47.5H43.5c-0.276,0-0.5-0.224-0.5-0.5s0.224-0.5,0.5-0.5H59c2.206,0,4-1.794,4-4
			c0-1.408-0.673-2.755-1.8-3.6l-2-1.5c-2.494-1.87-5.583-2.9-8.7-2.9H35.3c-0.276,0-0.5-0.224-0.5-0.5s0.224-0.5,0.5-0.5h15.2
			c3.332,0,6.634,1.101,9.3,3.1l2,1.5c1.378,1.034,2.2,2.679,2.2,4.4C64,45.257,61.757,47.5,59,47.5z"/>
	</g>
	<g>
		<path class="st0" d="M52.5,39c0,0.552,0.448,1,1,1h9.321c-0.333-0.576-0.775-1.09-1.321-1.5l-2-1.5
			c-0.493-0.37-1.011-0.696-1.541-1H53.5c-0.552,0-1,0.448-1,1V39z"/>
		<path class="st1" d="M62.821,40.5H53.5c-0.827,0-1.5-0.673-1.5-1.5v-2c0-0.827,0.673-1.5,1.5-1.5h4.459
			c0.087,0,0.173,0.022,0.249,0.066c0.609,0.349,1.13,0.688,1.592,1.033l2,1.5c0.584,0.438,1.073,0.993,1.454,1.649
			c0.09,0.155,0.09,0.346,0,0.501C63.165,40.404,63,40.5,62.821,40.5z M53.5,36.5c-0.276,0-0.5,0.225-0.5,0.5v2
			c0,0.275,0.224,0.5,0.5,0.5h8.35c-0.197-0.223-0.414-0.424-0.649-0.6l-2-1.5c-0.4-0.3-0.851-0.596-1.375-0.9H53.5z"/>
	</g>
	<g>
		<path class="st0" d="M29.25,57h-6.307c-0.698,0-1.181-0.697-0.936-1.351L27.5,41h6.938H42.5L31.25,56
			C30.778,56.63,30.037,57,29.25,57z"/>
		<path class="st1" d="M29.25,57.5h-6.307c-0.492,0-0.952-0.241-1.232-0.646s-0.345-0.921-0.172-1.382l5.493-14.648
			c0.073-0.195,0.26-0.324,0.468-0.324h15c0.189,0,0.362,0.107,0.447,0.276c0.084,0.169,0.066,0.372-0.047,0.523l-11.25,15
			C31.087,57.052,30.189,57.5,29.25,57.5z M27.847,41.5l-5.372,14.324c-0.059,0.156-0.038,0.324,0.057,0.461
			s0.244,0.215,0.411,0.215h6.307c0.626,0,1.225-0.299,1.6-0.8L41.5,41.5H27.847z"/>
	</g>
	<g>
		<path class="st1" d="M37,55h-2.625c-0.276,0-0.5-0.224-0.5-0.5s0.224-0.5,0.5-0.5H37c0.276,0,0.5-0.225,0.5-0.5V53
			c0-0.275-0.224-0.5-0.5-0.5h-0.75c-0.276,0-0.5-0.224-0.5-0.5s0.224-0.5,0.5-0.5H37c0.827,0,1.5,0.673,1.5,1.5v0.5
			C38.5,54.327,37.827,55,37,55z"/>
	</g>
	<g>
		<path class="st1" d="M40.5,50h-2.375c-0.276,0-0.5-0.224-0.5-0.5s0.224-0.5,0.5-0.5H40.5c0.276,0,0.5-0.225,0.5-0.5V48
			c0-0.275-0.224-0.5-0.5-0.5H40c-0.276,0-0.5-0.224-0.5-0.5s0.224-0.5,0.5-0.5h0.5c0.827,0,1.5,0.673,1.5,1.5v0.5
			C42,49.327,41.327,50,40.5,50z"/>
	</g>
	<g>
		<path class="st0" d="M3.5,35.5h8l-6.421,4.541C4.657,40.34,4.152,40.5,3.635,40.5H0.5L3.5,35.5z"/>
		<path class="st1" d="M3.635,41H0.5c-0.18,0-0.346-0.097-0.435-0.254c-0.089-0.156-0.086-0.349,0.006-0.503l3-5
			C3.162,35.092,3.324,35,3.5,35h8c0.218,0,0.411,0.141,0.477,0.349c0.066,0.207-0.01,0.434-0.188,0.56l-6.421,4.541
			C4.859,40.81,4.26,41,3.635,41z M1.383,40h2.252c0.416,0,0.815-0.127,1.154-0.367L9.927,36H3.783L1.383,40z"/>
	</g>
	<g>
		<path class="st1" d="M24.5,57.5c-0.059,0-0.118-0.01-0.176-0.032c-0.258-0.097-0.389-0.385-0.292-0.644l6-16
			c0.097-0.258,0.385-0.392,0.644-0.292c0.258,0.097,0.389,0.385,0.292,0.644l-6,16C24.893,57.376,24.702,57.5,24.5,57.5z"/>
	</g>
	<g>
		<path class="st2" d="M38,21H26c-0.552,0-1-0.448-1-1v-8c0-0.552,0.448-1,1-1h12c0.552,0,1,0.448,1,1v8C39,20.552,38.552,21,38,21z
			"/>
		<path class="st1" d="M38,21.5H26c-0.827,0-1.5-0.673-1.5-1.5v-8c0-0.827,0.673-1.5,1.5-1.5h12c0.827,0,1.5,0.673,1.5,1.5v8
			C39.5,20.827,38.827,21.5,38,21.5z M26,11.5c-0.276,0-0.5,0.225-0.5,0.5v8c0,0.275,0.224,0.5,0.5,0.5h12
			c0.276,0,0.5-0.225,0.5-0.5v-8c0-0.275-0.224-0.5-0.5-0.5H26z"/>
	</g>
	<g>
		<path class="st1" d="M34,11.5h-4c-0.276,0-0.5-0.224-0.5-0.5v-1c0-0.827,0.673-1.5,1.5-1.5h2c0.827,0,1.5,0.673,1.5,1.5v1
			C34.5,11.276,34.276,11.5,34,11.5z M30.5,10.5h3V10c0-0.275-0.224-0.5-0.5-0.5h-2c-0.276,0-0.5,0.225-0.5,0.5V10.5z"/>
	</g>
	<g>
		<path class="st1" d="M31,16.5h-6c-0.276,0-0.5-0.224-0.5-0.5s0.224-0.5,0.5-0.5h6c0.276,0,0.5,0.224,0.5,0.5S31.276,16.5,31,16.5z
			"/>
	</g>
	<g>
		<path class="st1" d="M39,16.5h-6c-0.276,0-0.5-0.224-0.5-0.5s0.224-0.5,0.5-0.5h6c0.276,0,0.5,0.224,0.5,0.5S39.276,16.5,39,16.5z
			"/>
	</g>
	<g>
		<path class="st1" d="M33,18h-2c-0.276,0-0.5-0.224-0.5-0.5v-3c0-0.276,0.224-0.5,0.5-0.5h2c0.276,0,0.5,0.224,0.5,0.5v3
			C33.5,17.776,33.276,18,33,18z M31.5,17h1v-2h-1V17z"/>
	</g>
	<g>
		<path class="st1" d="M58.5,18h-4c-0.276,0-0.5-0.224-0.5-0.5s0.224-0.5,0.5-0.5h4c0.276,0,0.5,0.224,0.5,0.5S58.776,18,58.5,18z"
			/>
	</g>
	<g>
		<path class="st1" d="M56.5,20c-0.276,0-0.5-0.224-0.5-0.5v-4c0-0.276,0.224-0.5,0.5-0.5s0.5,0.224,0.5,0.5v4
			C57,19.776,56.776,20,56.5,20z"/>
	</g>
	<g>
		<path class="st1" d="M52.5,23.5h-4c-0.276,0-0.5-0.224-0.5-0.5s0.224-0.5,0.5-0.5h4c0.276,0,0.5,0.224,0.5,0.5
			S52.776,23.5,52.5,23.5z"/>
	</g>
	<g>
		<path class="st1" d="M50.5,25.5c-0.276,0-0.5-0.224-0.5-0.5v-4c0-0.276,0.224-0.5,0.5-0.5S51,20.724,51,21v4
			C51,25.276,50.776,25.5,50.5,25.5z"/>
	</g>
	<g>
		<path class="st6" d="M56.5,56c0-1.105-0.895-2-2-2s-2,0.895-2,2c-1.105,0-2,0.895-2,2s0.895,2,2,2h4c1.105,0,2-0.895,2-2
			S57.605,56,56.5,56z"/>
	</g>
</g>
</svg>
